<svg xmlns="http://www.w3.org/2000/svg" viewBox="0 0 48 48" fill="none" role="img" aria-label="PDF">
<defs><linearGradient id="p" x1="24" y1="2" x2="24" y2="46" gradientUnits="userSpaceOnUse"><stop stop-color="#3b3b3f"/><stop offset="1" stop-color="#0f0f11"/></linearGradient><linearGradient id="r" x1="8" y1="2" x2="40" y2="46" gradientUnits="userSpaceOnUse"><stop stop-color="#fff" stop-opacity=".34"/><stop offset=".5" stop-color="#fff" stop-opacity=".05"/><stop offset="1" stop-color="#fff" stop-opacity=".16"/></linearGradient></defs>
<rect x="2" y="2" width="44" height="44" rx="13" fill="url(#p)"/><rect x="2.5" y="2.5" width="43" height="43" rx="12.5" stroke="url(#r)"/>
<g transform="translate(10.4 10.4) scale(1.133)" stroke="#fff" stroke-width="1.9" stroke-linecap="round" stroke-linejoin="round"><path fill="#fff" fill-opacity=".16" stroke="none" d="M13.8 3.5H7.5A2.5 2.5 0 0 0 5 6v12a2.5 2.5 0 0 0 2.5 2.5h9A2.5 2.5 0 0 0 19 18V8.7z"/><path d="M13.8 3.5H7.5A2.5 2.5 0 0 0 5 6v12a2.5 2.5 0 0 0 2.5 2.5h9A2.5 2.5 0 0 0 19 18V8.7z"/><path d="M13.8 3.5V7a1.7 1.7 0 0 0 1.7 1.7H19"/><rect x="6.8" y="12.3" width="10.4" height="5" rx="1.5" fill="#fff" stroke="none"/><path d="M9.3 16l.9-2.4M11.6 16l.9-2.4M13.9 16l.9-2.4" stroke="#18181a" stroke-width="1.2"/></g>
</svg>
